<svg width="19" height="17" viewBox="0 0 19 17" fill="none" xmlns="http://www.w3.org/2000/svg">
<path d="M9.50543 0.151367C4.77443 0.151367 0.940117 3.52591 0.940117 7.69063C0.940117 9.41596 1.60594 10.9963 2.71006 12.2686C2.21153 13.6967 1.17433 14.9073 1.1576 14.9218C0.936771 15.1755 0.876547 15.5452 1.00369 15.8642C1.13083 16.1832 1.42192 16.3898 1.74312 16.3898C3.8008 16.3898 5.42352 15.4582 6.39716 14.7116C7.3641 15.0414 8.408 15.2299 9.50543 15.2299C14.2364 15.2299 18.0707 11.8553 18.0707 7.69063C18.0707 3.52591 14.2364 0.151367 9.50543 0.151367ZM9.50543 13.4901C8.6121 13.4901 7.7288 13.3414 6.88231 13.0515L6.1228 12.7905L5.47037 13.2907C4.99191 13.6568 4.33613 14.0664 3.54652 14.3418C3.79076 13.9033 4.02832 13.4103 4.21234 12.8847L4.56699 11.8662L3.87775 11.076C3.27216 10.3765 2.54611 9.22023 2.54611 7.69063C2.54611 4.49369 5.66777 1.8912 9.50543 1.8912C13.3431 1.8912 16.4648 4.49369 16.4648 7.69063C16.4648 10.8876 13.3431 13.4901 9.50543 13.4901Z" fill="#555555" fill-opacity="0.5"/>
</svg>
