<svg width="35" height="31" viewBox="0 0 35 31" fill="none" xmlns="http://www.w3.org/2000/svg">
<path d="M18.0142 1.02646C17.8095 0.866026 17.5573 0.7789 17.2977 0.7789C17.038 0.7789 16.7859 0.866026 16.5811 1.02646L0 14.0205L1.43426 15.8435L3.46161 14.2548V28.6103C3.46283 29.2251 3.70636 29.8143 4.13888 30.249C4.5714 30.6837 5.15767 30.9284 5.76935 30.9296H28.8467C29.4584 30.9284 30.0447 30.6837 30.4772 30.249C30.9097 29.8143 31.1533 29.2251 31.1545 28.6103V14.2652L33.1818 15.854L34.6161 14.031L18.0142 1.02646ZM19.6158 28.6103H15.0003V19.333H19.6158V28.6103ZM21.9235 28.6103V19.333C21.9229 18.718 21.6796 18.1285 21.2469 17.6936C20.8143 17.2588 20.2276 17.0142 19.6158 17.0136H15.0003C14.3884 17.0142 13.8018 17.2588 13.3692 17.6936C12.9365 18.1285 12.6932 18.718 12.6926 19.333V28.6103H5.76935V12.4469L17.308 3.41305L28.8467 12.4585V28.6103H21.9235Z" fill="#555555" fill-opacity="0.7"/>
</svg>
