<svg width="18" height="16" viewBox="0 0 18 16" fill="none" xmlns="http://www.w3.org/2000/svg">
<path d="M15.5824 15.877H2.8415C2.28651 15.8844 1.75144 15.6532 1.35345 15.2342C0.955451 14.8151 0.726964 14.2422 0.718018 13.641V2.46998C0.726964 1.86877 0.955451 1.2959 1.35345 0.876812C1.75144 0.457719 2.28651 0.226555 2.8415 0.233936H6.74871C6.87417 0.234835 6.99789 0.265832 7.11097 0.324701C7.22406 0.383569 7.3237 0.468846 7.40274 0.574403L9.61116 3.50058H15.5569C15.8338 3.49325 16.1094 3.54541 16.3676 3.65405C16.6258 3.76269 16.8617 3.92565 17.0614 4.13354C17.2612 4.34142 17.421 4.59011 17.5316 4.86526C17.6423 5.14041 17.7015 5.43656 17.7059 5.73662V13.641C17.6969 14.2422 17.4684 14.8151 17.0704 15.2342C16.6724 15.6532 16.1374 15.8844 15.5824 15.877ZM2.4168 9.675V13.641C2.42 13.6974 2.43362 13.7526 2.45684 13.8033C2.48007 13.854 2.51243 13.8991 2.55202 13.936C2.59162 13.9729 2.63763 14.0008 2.68735 14.0181C2.73707 14.0354 2.78949 14.0417 2.8415 14.0367H15.5824C15.6344 14.0417 15.6868 14.0354 15.7365 14.0181C15.7863 14.0008 15.8323 13.9729 15.8719 13.936C15.9115 13.8991 15.9438 13.854 15.967 13.8033C15.9903 13.7526 16.0039 13.6974 16.0071 13.641V5.73662C16.0039 5.68016 15.9903 5.62496 15.967 5.57429C15.9438 5.52363 15.9115 5.47851 15.8719 5.44163C15.8323 5.40474 15.7863 5.37683 15.7365 5.35953C15.6868 5.34224 15.6344 5.33592 15.5824 5.34095H9.21194C9.08648 5.34005 8.96277 5.30905 8.84968 5.25018C8.7366 5.19131 8.63695 5.10604 8.55791 5.00048L6.34949 2.0743H2.8415C2.78949 2.06927 2.73707 2.0756 2.68735 2.09289C2.63763 2.11018 2.59162 2.1381 2.55202 2.17498C2.51243 2.21187 2.48007 2.25698 2.45684 2.30765C2.43362 2.35832 2.42 2.41351 2.4168 2.46998V9.675Z" fill="#555555" fill-opacity="0.5"/>
</svg>
