<svg width="18" height="18" viewBox="0 0 18 18" fill="none" xmlns="http://www.w3.org/2000/svg">
<path d="M7.84298 4.3926L5.13674 1.26879C4.82476 0.908811 4.25279 0.910411 3.89041 1.27359L1.66495 3.50306C1.00259 4.16622 0.812997 5.15096 1.19617 5.94051C3.48533 10.6802 7.30784 14.5081 12.0443 16.8039C12.8331 17.187 13.817 16.9974 14.4794 16.3343L16.7256 14.084C17.0896 13.72 17.0904 13.1449 16.7272 12.8329L13.5914 10.1411C13.2635 9.85947 12.7539 9.89627 12.4251 10.2259L11.334 11.3186C11.2781 11.3771 11.2046 11.4157 11.1247 11.4284C11.0447 11.4412 10.9629 11.4273 10.8916 11.389C9.10806 10.3619 7.62858 8.88052 6.60385 7.09564C6.56547 7.02425 6.55158 6.94223 6.56429 6.86218C6.57701 6.78213 6.61564 6.70846 6.67425 6.65247L7.76218 5.56373C8.09176 5.23255 8.12776 4.72058 7.84298 4.3918V4.3926Z" stroke="#8AB929" stroke-width="2" stroke-linecap="round" stroke-linejoin="round"/>
</svg>
