<svg width="51" height="51" viewBox="0 0 51 51" fill="none" xmlns="http://www.w3.org/2000/svg">
<path d="M5.16716 13.3667C5.5699 12.8546 6.10029 12.1613 6.52504 11.6658C7.79709 10.3001 7.96215 10.1211 9.11976 9.1114C9.46308 8.84492 9.87023 8.52432 10.2686 8.22245C7.33053 10.5749 6.95639 13.1793 9.65235 14.7886C9.64795 14.7886 9.64795 14.7886 9.64795 14.7928C13.4179 16.9412 21.6796 16.477 28.1983 13.7248C34.5124 11.06 36.843 7.24815 33.7267 4.9831C30.9911 4.49803 27.7296 4.44182 24.2788 4.879L23.92 4.31899L24.2171 3.39048C26.2463 3.21769 28.1741 3.25933 29.8379 3.52788C30.2407 3.59242 30.7711 3.70276 31.1672 3.78187C31.9331 3.95883 32.349 4.065 32.8486 4.21698C33.3592 4.36062 33.7949 4.50427 34.5542 4.77075C35.2981 5.04763 35.6194 5.17254 36.2158 5.45359C36.8837 5.74186 37.5326 6.06791 38.1591 6.42998C43.1241 9.38412 40.0364 14.774 31.275 18.4672C22.5379 22.1479 11.4042 22.7267 6.415 19.8079C6.4128 19.8038 6.4062 19.7996 6.39299 19.7954H6.40179C3.67723 18.1633 3.39112 15.7941 5.16716 13.3667ZM27.899 34.0186L27.8286 30.7002L25.3351 28.077C17.0976 29.8424 9.00092 29.4635 4.49812 26.9549C4.48271 26.9383 4.4453 26.9216 4.42989 26.905C1.88139 25.4206 1.25196 23.5053 1.44343 21.4235C0.847018 24.4692 0.798601 25.5684 0.884431 28.1749C0.990069 29.8071 1.98702 31.3122 3.99194 32.4989L4.00734 32.5155C8.80725 35.3385 18.8076 35.9506 27.899 34.0186ZM38.2977 37.818C26.671 42.2294 12.1194 42.4897 5.79878 38.4072C6.48137 39.9851 7.41015 41.4574 8.55416 42.7749C14.3554 46.5222 27.712 46.2828 38.3792 42.2336C44.6228 39.8665 48.5622 36.7167 49.5966 33.7646L49.8871 32.8757C50.5759 30.6231 50.7058 28.7474 50.8158 27.0778C50.6904 30.7022 46.1765 34.8243 38.2977 37.818ZM12.6322 46.314C12.9975 46.643 14.1463 47.9774 19.9674 49.4514C21.541 49.7803 25.5024 50.8358 32.82 49.3015L32.864 48.6707L32.2852 47.813C25.4958 49.3327 17.9537 48.8247 12.6322 46.314ZM29.433 20.064L35.615 24.4963C35.615 24.4963 36.9377 25.3977 35.6898 26.0306C34.4464 26.6572 31.253 28.1915 31.253 28.1915L28.0993 27.0778L26.517 27.7439L29.3075 30.0361L29.3296 33.6023L30.9691 32.9132L32.0563 29.9007C32.0563 29.9007 35.3949 28.6849 36.7198 28.2269C38.0513 27.7793 37.873 29.3116 37.873 29.3116L37.2172 36.6209L39.3959 35.7049L42.9832 25.8432C42.9832 25.8432 44.8847 24.9688 46.2228 24.2006C47.5586 23.4324 48.0164 22.1583 48.0164 22.1583C48.0164 22.1583 46.7135 21.6275 45.2126 22.0543C43.7117 22.4769 41.7552 23.2305 41.7552 23.2305L31.6052 19.1522L29.433 20.064ZM16.3537 6.04068L20.5506 9.203L21.6972 9.04062L19.4128 6.20306C19.4128 6.20306 18.9154 5.61598 19.5845 5.47649C20.2579 5.33493 21.9613 5.006 21.9613 5.006L23.2422 5.97406L24.1049 5.85331L23.1277 4.38352L23.6427 2.75344L22.8086 2.86794L21.8205 4.10872C21.8205 4.10872 20.0863 4.26278 19.404 4.31691C18.7174 4.36687 19.0123 3.66945 19.0123 3.66945L20.3284 0.321838L19.1751 0.482141L16.1381 4.66457C16.1381 4.66457 15.1257 4.83945 14.3928 5.03722C13.6578 5.23292 13.2704 5.77004 13.2704 5.77004C13.2704 5.77004 13.8096 6.18224 14.5689 6.16767C15.3348 6.1531 16.3537 6.04068 16.3537 6.04068ZM37.0961 46.6742L34.3803 45.3314L33.7553 45.5375L35.3641 46.899C35.3641 46.899 35.7074 47.1759 35.3465 47.3237C34.9856 47.4695 34.0656 47.8275 34.0656 47.8275L33.3064 47.5069L32.8552 47.661L33.4868 48.298L33.4252 49.2286L33.8962 49.0746L34.2483 48.3188C34.2483 48.3188 35.2034 48.0503 35.5842 47.9545C35.9627 47.8567 35.8769 48.2772 35.8769 48.2772L35.5182 50.2862L36.1454 50.0801L37.3756 47.4237C37.3756 47.4237 37.9192 47.2217 38.3087 47.0364C38.6983 46.8511 38.8523 46.5097 38.8523 46.5097C38.8523 46.5097 38.5068 46.3307 38.0799 46.4202C37.6507 46.5056 37.0961 46.6742 37.0961 46.6742Z" fill="white"/>
</svg>
