<svg width="14" height="14" viewBox="0 0 14 14" fill="none" xmlns="http://www.w3.org/2000/svg">
<path d="M12.7073 11.4251C12.3756 10.6392 11.8941 9.92541 11.2897 9.32337C10.6872 8.71959 9.97351 8.2382 9.18798 7.90578C9.18095 7.90226 9.17391 7.9005 9.16688 7.89698C10.2626 7.10553 10.9749 5.81633 10.9749 4.36181C10.9749 1.95226 9.02266 0 6.61311 0C4.20356 0 2.2513 1.95226 2.2513 4.36181C2.2513 5.81633 2.96361 7.10553 4.05934 7.89874C4.05231 7.90226 4.04527 7.90402 4.03824 7.90754C3.2503 8.23995 2.54326 8.71658 1.93648 9.32513C1.3327 9.92763 0.851308 10.6414 0.518888 11.4269C0.192319 12.1959 0.0161931 13.0204 4.39804e-05 13.8558C-0.000425451 13.8745 0.00286706 13.8932 0.0097276 13.9107C0.0165881 13.9282 0.0268778 13.9441 0.0399904 13.9576C0.053103 13.971 0.0687731 13.9817 0.0860774 13.989C0.103382 13.9963 0.12197 14 0.140747 14H1.19602C1.27341 14 1.33497 13.9384 1.33673 13.8628C1.3719 12.505 1.91713 11.2334 2.88095 10.2696C3.87818 9.27236 5.20256 8.72362 6.61311 8.72362C8.02366 8.72362 9.34803 9.27236 10.3453 10.2696C11.3091 11.2334 11.8543 12.505 11.8895 13.8628C11.8912 13.9402 11.9528 14 12.0302 14H13.0855C13.1042 14 13.1228 13.9963 13.1401 13.989C13.1574 13.9817 13.1731 13.971 13.1862 13.9576C13.1993 13.9441 13.2096 13.9282 13.2165 13.9107C13.2234 13.8932 13.2266 13.8745 13.2262 13.8558C13.2086 13.0151 13.0345 12.1972 12.7073 11.4251ZM6.61311 7.38693C5.80582 7.38693 5.04602 7.07211 4.47442 6.5005C3.90281 5.92889 3.58798 5.1691 3.58798 4.36181C3.58798 3.55452 3.90281 2.79472 4.47442 2.22312C5.04602 1.65151 5.80582 1.33668 6.61311 1.33668C7.4204 1.33668 8.18019 1.65151 8.7518 2.22312C9.32341 2.79472 9.63824 3.55452 9.63824 4.36181C9.63824 5.1691 9.32341 5.92889 8.7518 6.5005C8.18019 7.07211 7.4204 7.38693 6.61311 7.38693Z" fill="#666666" fill-opacity="0.7"/>
</svg>
