<svg width="51" height="51" viewBox="0 0 51 51" fill="none" xmlns="http://www.w3.org/2000/svg">
<path d="M44.2975 26.0125C42.5711 25.4262 40.6492 25.1819 38.5318 25.2796C36.4145 25.3773 34.3705 25.7112 32.3997 26.2813C30.429 26.8513 28.3116 27.4865 26.0477 28.1869C23.7838 28.8872 21.6338 29.5468 19.5979 30.1658C17.562 30.7847 15.404 31.2 13.1238 31.4117C10.8436 31.6235 8.72622 31.5339 6.77175 31.143C5.01273 30.7847 3.53059 30.2065 2.32534 29.4084C1.12008 28.6103 0.517456 27.7552 0.517456 26.8432C0.517456 25.9311 1.13637 25.247 2.3742 24.791C3.61203 24.3349 5.07788 24.2698 6.77175 24.5955C8.17245 25.2144 9.85004 25.475 11.8045 25.3773C13.759 25.2796 15.7297 24.9457 17.7168 24.3756C19.7038 23.8056 21.87 23.1704 24.2154 22.47C26.5607 21.7697 28.8247 21.1019 31.0071 20.4667C33.1896 19.8315 35.4536 19.408 37.7989 19.1963C40.1443 18.9846 42.3105 19.0742 44.2975 19.465C46.0565 19.8234 47.5387 20.4016 48.7439 21.1996C49.9492 21.9977 50.5518 22.8365 50.5518 23.716C50.5518 24.6932 49.9085 25.4425 48.6218 25.9636C47.3351 26.4848 45.8937 26.5011 44.2975 26.0125ZM44.2975 7.24963C42.5711 6.66329 40.6492 6.41898 38.5318 6.51671C36.4145 6.61443 34.3705 6.94832 32.3997 7.51837C30.429 8.08842 28.3116 8.72362 26.0477 9.42397C23.7838 10.1243 21.6338 10.784 19.5979 11.4029C17.562 12.0218 15.404 12.4371 13.1238 12.6488C10.8436 12.8606 8.72622 12.771 6.77175 12.3801C5.01273 12.0218 3.53059 11.4436 2.32534 10.6455C1.12008 9.84744 0.517456 8.99236 0.517456 8.08028C0.517456 7.16819 1.13637 6.48413 2.3742 6.02809C3.61203 5.57205 5.07788 5.5069 6.77175 5.83264C8.17245 6.45156 9.85004 6.71215 11.8045 6.61443C13.759 6.51671 15.7297 6.18282 17.7168 5.61276C19.7038 5.04271 21.87 4.40751 24.2154 3.70716C26.5607 3.00681 28.8247 2.33903 31.0071 1.70383C33.1896 1.06863 35.4536 0.645162 37.7989 0.433428C40.1443 0.221694 42.3105 0.311274 44.2975 0.702167C46.0565 1.06049 47.5387 1.63868 48.7439 2.43676C49.9492 3.23483 50.5518 4.07362 50.5518 4.95313C50.5518 5.93037 49.9085 6.67958 48.6218 7.20077C47.3351 7.72196 45.8937 7.73825 44.2975 7.24963ZM6.77175 43.3584C8.17245 43.9773 9.85004 44.2379 11.8045 44.1402C13.759 44.0425 15.7297 43.7086 17.7168 43.1385C19.7038 42.5685 21.87 41.9333 24.2154 41.2329C26.5607 40.5326 28.8247 39.8648 31.0071 39.2296C33.1896 38.5944 35.4536 38.1709 37.7989 37.9592C40.1443 37.7475 42.3105 37.837 44.2975 38.2279C46.0565 38.5862 47.5387 39.1644 48.7439 39.9625C49.9492 40.7606 50.5518 41.5994 50.5518 42.4789C50.5518 43.4561 49.9085 44.2053 48.6218 44.7265C47.3351 45.2477 45.8937 45.264 44.2975 44.7754C42.5711 44.1891 40.6492 43.9447 38.5318 44.0425C36.4145 44.1402 34.3705 44.4741 32.3997 45.0441C30.429 45.6142 28.3116 46.2494 26.0477 46.9497C23.7838 47.6501 21.6338 48.3097 19.5979 48.9286C17.562 49.5476 15.404 49.9629 13.1238 50.1746C10.8436 50.3863 8.72622 50.2968 6.77175 49.9059C5.01273 49.5476 3.53059 48.9694 2.32534 48.1713C1.12008 47.3732 0.517456 46.5181 0.517456 45.606C0.517456 44.694 1.13637 44.0099 2.3742 43.5539C3.61203 43.0978 5.07788 43.0327 6.77175 43.3584Z" fill="white"/>
</svg>
